<?xml version="1.0" encoding="UTF-8"?>
<svg xmlns="http://www.w3.org/2000/svg" xmlns:xlink="http://www.w3.org/1999/xlink" xmlns:svgjs="http://svgjs.com/svgjs" id="SvgjsSvg1001" width="288" height="288" version="1.1">
  <defs id="SvgjsDefs1002"></defs>
  <g id="SvgjsG1008">
    <svg xmlns="http://www.w3.org/2000/svg" viewBox="0 0 48 48" width="288" height="288">
      <path d="M13.85 34.05H27.6v-3H13.85Zm0-8.55h20.3v-3h-20.3Zm0-8.55h20.3v-3h-20.3ZM9 42q-1.2 0-2.1-.9Q6 40.2 6 39V9q0-1.2.9-2.1Q7.8 6 9 6h30q1.2 0 2.1.9.9.9.9 2.1v30q0 1.2-.9 2.1-.9.9-2.1.9Zm0-3h30V9H9v30ZM9 9v30V9Z" fill="#52cc99" class="color000 svgShape"></path>
    </svg>
  </g>
</svg>
