<?xml version="1.0" encoding="UTF-8"?>
<svg xmlns="http://www.w3.org/2000/svg" xmlns:xlink="http://www.w3.org/1999/xlink" xmlns:svgjs="http://svgjs.com/svgjs" id="SvgjsSvg1001" width="288" height="288" version="1.1">
  <defs id="SvgjsDefs1002"></defs>
  <g id="SvgjsG1008">
    <svg xmlns="http://www.w3.org/2000/svg" viewBox="0 0 48 48" width="288" height="288">
      <path d="M6 42v-3h4.6V6h19.5v2.25h7.35V39H42v3h-7.55V11.25H30.1V42Zm7.6-33v30Zm8.95 17q.85 0 1.425-.575.575-.575.575-1.425 0-.85-.575-1.425Q23.4 22 22.55 22q-.85 0-1.425.575-.575.575-.575 1.425 0 .85.575 1.425Q21.7 26 22.55 26ZM13.6 39h13.5V9H13.6Z" fill="#52cc99" class="color000 svgShape"></path>
    </svg>
  </g>
</svg>
