<?xml version="1.0" encoding="UTF-8"?>
<svg preserveAspectRatio="xMidYMid slice" xmlns="http://www.w3.org/2000/svg" xmlns:svgjs="http://svgjs.com/svgjs" xmlns:xlink="http://www.w3.org/1999/xlink" width="68px" height="68px">
  <svg preserveAspectRatio="xMidYMid slice" xmlns="http://www.w3.org/2000/svg" width="68px" height="68px" viewBox="0 0 48 48">
    <path fill="#2b65f9" d="M22.5 42v-4h-4v-3h4v-5.1q-4.1-.55-6.8-3.675T13 18.95q0-4.55 3.225-7.75T24 8q4.55 0 7.775 3.2Q35 14.4 35 18.95q0 4.15-2.7 7.275T25.5 29.9V35h4v3h-4v4ZM24 27q3.3 0 5.65-2.35Q32 22.3 32 19q0-3.3-2.35-5.65Q27.3 11 24 11q-3.3 0-5.65 2.35Q16 15.7 16 19q0 3.3 2.35 5.65Q20.7 27 24 27Z" class="color000 svgShape"></path>
  </svg>
</svg>
