<?xml version="1.0" encoding="UTF-8"?>
<svg preserveAspectRatio="xMidYMid slice" xmlns="http://www.w3.org/2000/svg" xmlns:xlink="http://www.w3.org/1999/xlink" xmlns:svgjs="http://svgjs.com/svgjs" id="SvgjsSvg1021" width="68px" height="68px" version="1.1">
  <defs id="SvgjsDefs1022"></defs>
  <g id="SvgjsG1023">
    <svg preserveAspectRatio="xMidYMid slice" xmlns="http://www.w3.org/2000/svg" viewBox="0 0 48 48" width="68px" height="68px">
      <path d="M13 46q-1.2 0-2.1-.9-.9-.9-.9-2.1V5q0-1.2.9-2.1.9-.9 2.1-.9h22q1.2 0 2.1.9.9.9.9 2.1v38q0 1.2-.9 2.1-.9.9-2.1.9Zm0-4.5V43h22v-1.5Zm0-3h22v-29H13Zm0-32h22V5H13Zm0 0V5v1.5Zm0 35V43Z" fill="#2b65f9" class="color000 svgShape"></path>
    </svg>
  </g>
</svg>
