<?xml version="1.0" standalone="no"?>
<!DOCTYPE svg PUBLIC "-//W3C//DTD SVG 20010904//EN"
 "http://www.w3.org/TR/2001/REC-SVG-20010904/DTD/svg10.dtd">
<svg version="1.0" xmlns="http://www.w3.org/2000/svg"
 width="198.000000pt" height="198.000000pt" viewBox="0 0 198.000000 198.000000"
 preserveAspectRatio="xMidYMid meet">
<metadata>
Created by potrace 1.14, written by Peter Selinger 2001-2017
</metadata>
<g transform="translate(0.000000,198.000000) scale(0.100000,-0.100000)"
fill="#000000" stroke="none">
<path d="M213 1964 c-18 -9 -40 -32 -50 -53 -17 -34 -18 -87 -18 -921 0 -721
3 -891 14 -917 33 -79 151 -98 214 -34 l32 31 3 405 c1 223 6 406 10 406 4 1
265 2 580 3 375 1 576 -2 580 -9 4 -5 7 -181 7 -390 0 -296 3 -387 14 -412 33
-79 151 -98 214 -34 l32 31 2 904 c2 850 1 905 -16 937 -45 87 -176 90 -226 6
-18 -30 -20 -56 -21 -407 -1 -206 -2 -378 -3 -381 0 -3 -263 -6 -583 -5 l-583
1 -5 385 c-4 292 -8 391 -18 408 -32 56 -115 77 -179 46z"/>
</g>
</svg>
