<?xml version="1.0" encoding="UTF-8"?>
<svg width="300px" height="95px" xmlns="http://www.w3.org/2000/svg" id="svg262291" viewBox="0 0 400.52 127.08">
  <defs>
    <style>
      .cls-1 {
        fill: #333;
      }
    </style>
  </defs>
  <g id="title">
    <path id="path262300" class="cls-1" d="m94.87,2.44c-1.63,1.63-2.44,3.58-2.44,6.02v46.7H16.92V8.46c0-2.44-.81-4.39-2.44-6.02S10.9,0,8.46,0,4.07.81,2.44,2.44,0,6.02,0,8.46v110.16c0,2.44.81,4.39,2.44,6.02s3.58,2.44,6.02,2.44,4.39-.81,6.02-2.44,2.44-3.58,2.44-6.02v-48.49h75.5v48.49c0,2.44.81,4.39,2.44,6.02s3.58,2.44,6.02,2.44c2.28,0,4.23-.65,5.86-2.28s2.44-3.58,2.44-6.18V8.46c0-2.44-.81-4.39-2.44-6.02s-3.58-2.44-5.86-2.44c-2.44,0-4.39.81-6.02,2.44Z"></path>
    <path id="path262302" class="cls-1" d="m236.77,115.21L190.89,5.7c-1.46-3.74-4.07-5.7-7.97-5.7s-6.35,1.95-7.97,5.7l-45.72,109.19c-.65,1.46-.81,2.77-.81,3.74,0,2.44.65,4.39,2.28,6.02s3.58,2.44,6.02,2.44c1.63,0,3.09-.33,4.56-1.3,1.3-.98,2.44-2.12,3.25-3.91l38.73-94.7,38.08,94.7c.49,1.63,1.63,2.93,3.09,3.91,1.46.98,2.93,1.3,4.72,1.3,2.28,0,4.39-.81,6.02-2.44,1.63-1.63,2.44-3.58,2.44-5.86,0-.98-.33-2.12-.81-3.58Z"></path>
    <path id="path262304" class="cls-1" d="m326.78,8.14C317.18,2.77,306.27,0,294.07,0h-29.45c-2.44,0-4.39.81-6.02,2.44-1.63,1.63-2.44,3.58-2.44,6.02v110.16c0,2.44.81,4.39,2.44,6.02,1.63,1.63,3.58,2.44,6.02,2.44h29.45c12.2,0,23.11-2.6,32.71-8.14,9.44-5.37,16.92-12.85,22.29-22.62,5.21-9.6,7.97-20.5,7.97-32.87s-2.77-23.11-7.97-32.71c-5.37-9.6-12.85-17.09-22.29-22.62Zm-8.62,97.79c-7.16,4.23-15.13,6.18-24.08,6.18h-20.99V14.97h20.99c8.95,0,16.92,2.12,24.08,6.18,7.16,4.23,12.69,9.93,16.6,17.25,3.91,7.49,6.02,15.78,6.02,25.06s-2.12,17.74-6.02,25.22c-3.91,7.49-9.44,13.18-16.6,17.25Z"></path>
    <path id="path262306" class="cls-1" d="m386.04,2.44c-1.63,1.63-2.44,3.58-2.44,6.02v110.16c0,2.44.81,4.39,2.44,6.02,1.63,1.63,3.58,2.44,6.02,2.44s4.39-.81,6.02-2.44c1.63-1.63,2.44-3.58,2.44-6.02V8.46c0-2.44-.81-4.39-2.44-6.02-1.63-1.63-3.58-2.44-6.02-2.44s-4.39.81-6.02,2.44Z"></path>
  </g>
</svg>
