<?xml version="1.0" encoding="UTF-8"?>
<svg preserveAspectRatio="xMidYMid slice" xmlns="http://www.w3.org/2000/svg" xmlns:xlink="http://www.w3.org/1999/xlink" xmlns:svgjs="http://svgjs.com/svgjs" id="SvgjsSvg1026" width="34px" height="34px" version="1.1">
  <defs id="SvgjsDefs1027"></defs>
  <g id="SvgjsG1028">
    <svg preserveAspectRatio="xMidYMid slice" xmlns="http://www.w3.org/2000/svg" viewBox="0 0 48 48" width="34px" height="34px">
      <path d="M11 44q-1.2 0-2.1-.9Q8 42.2 8 41V7q0-1.2.9-2.1Q9.8 4 11 4h26q1.2 0 2.1.9.9.9.9 2.1v34q0 1.2-.9 2.1-.9.9-2.1.9Zm0-3h26V7h-3v13.3l-4.85-2.8-4.85 2.8V7H11v34Zm0 0V7v34Zm13.3-20.7 4.85-2.8L34 20.3l-4.85-2.8-4.85 2.8Z" fill="#ff8066" class="color000 svgShape"></path>
    </svg>
  </g>
</svg>
