<?xml version="1.0" encoding="UTF-8"?>
<svg preserveAspectRatio="xMidYMid slice" xmlns="http://www.w3.org/2000/svg" xmlns:xlink="http://www.w3.org/1999/xlink" xmlns:svgjs="http://svgjs.com/svgjs" id="SvgjsSvg1031" width="34px" height="34px" version="1.1">
  <defs id="SvgjsDefs1032"></defs>
  <g id="SvgjsG1033">
    <svg preserveAspectRatio="xMidYMid slice" xmlns="http://www.w3.org/2000/svg" viewBox="0 0 48 48" width="34px" height="34px">
      <path d="M12.5 33.5h9v-3h-9Zm20 0h3v-3h-3Zm-20-8h9v-3h-9Zm20 0h3v-11h-3Zm-20-8h9v-3h-9ZM6.6 42q-1.2 0-2.1-.9-.9-.9-.9-2.1V9q0-1.2.9-2.1.9-.9 2.1-.9h34.8q1.2 0 2.1.9.9.9.9 2.1v30q0 1.2-.9 2.1-.9.9-2.1.9Zm0-3h34.8V9H6.6v30Zm0 0V9v30Z" fill="#2b65f9" class="color000 svgShape"></path>
    </svg>
  </g>
</svg>
