<?xml version="1.0" encoding="UTF-8"?>
<svg preserveAspectRatio="xMidYMid slice" xmlns="http://www.w3.org/2000/svg" xmlns:xlink="http://www.w3.org/1999/xlink" xmlns:svgjs="http://svgjs.com/svgjs" id="SvgjsSvg1066" width="34px" height="34px" version="1.1">
  <defs id="SvgjsDefs1067"></defs>
  <g id="SvgjsG1068">
    <svg preserveAspectRatio="xMidYMid slice" xmlns="http://www.w3.org/2000/svg" viewBox="0 0 48 48" width="34px" height="34px">
      <path d="m38.6 16.25-2.15-5-5.2-2.3 5.2-2.25 2.15-4.75 2.15 4.75 5.2 2.25-5.2 2.3Zm0 29.75-2.15-4.8-5.2-2.25 5.2-2.25 2.15-5.05 2.15 5.05 5.2 2.25-5.2 2.25Zm-21.95-7.7-4.6-9.85L2 23.95l10.05-4.5 4.6-9.8 4.65 9.8 10 4.5-10 4.5Zm0-7.4 2.4-4.8 4.9-2.15-4.9-2.15-2.4-4.8-2.35 4.8-4.95 2.15 4.95 2.15Zm0-6.95Z" fill="#2b65f9" class="color000 svgShape"></path>
    </svg>
  </g>
</svg>
